<svg xmlns="http://www.w3.org/2000/svg" xmlns:svg="http://www.w3.org/2000/svg" xmlns:xlink="http://www.w3.org/1999/xlink" version="1.0" height="960.010514676052pt" width="1980.00000386156pt" viewBox="65.00000000000011 2646.9999999999995 1988.00000386156 966.010514676052" ><defs><style type="text/css">
            @font-face {
                font-family: 'lt_regular';
                src: url('https://app.creately.com/d/assets/fonts/lato/lt-regular-webfont.woff2') format('woff2'),
                    url('https://app.creately.com/d/assets/fonts/lato/lt-regular-webfont.woff') format('woff');
                font-weight: normal;
                font-style: normal;
            }
            @font-face {
                font-family: 'noto_regular';
                src: url('https://app.creately.com/d/assets/fonts/noto/noto-regular.woff') format('woff'),
                     url('https://app.creately.com/d/assets/fonts/noto/noto-regular.woff2') format('woff2');
                font-weight: normal;
                font-style: normal;
            }
        p {
            margin: 0;
        }
        </style></defs><defs>
        <style>
            span{ display: inline-block; }
            
        </style>
        
        </defs><g id="dmAJYkyqnWY"><g transform="translate(400.00000000000006 2650)"><rect x="0" y="0" width="185.2070326997992" height="30" fill="rgb(233,162,59)" stroke="#A85923" stroke-width="2" stroke-linecap="round" stroke-linejoin="round" stroke-dasharray="0 0"/><path d="M 92.6035163498996,30 L 92.6035163498996,960.01035789185" fill="rgb(233,162,59)" stroke="#A85923" stroke-width="2" stroke-linecap="round" stroke-linejoin="round" stroke-dasharray="3 3"/><rect x="0" y="0" width="185.2070326997992" height="960.01035789185" fill="rgba(255,255,255,0.01)" stroke="rgba(255,255,255,0.01)" stroke-width="2" stroke-linecap="round" stroke-linejoin="round" stroke-dasharray="3 3"/></g><g transform="translate(441.4035163498997, 2655) rotate(0, 51.2, 0)" width="102.4" height="20"><text text-decoration="none" x="0.004687500000002842" fill="#FFFFFF" font-size="11pt" font-family="lt_regular"  y="16">MoveController</text><text text-decoration="none" x="102.3953125" fill="#4b4b4b" font-size="10pt" font-family="noto_regular"  y="16"></text></g></g><g id="5eSAzIhrAsE"><g transform="translate(1260 2649.9999999999995)"><rect x="0" y="0" width="190.0000623306403" height="30" fill="rgb(53,98,96)" stroke="#356260" stroke-width="2" stroke-linecap="round" stroke-linejoin="round" stroke-dasharray="0 0"/><path d="M 95.00003116532015,30 L 95.00003116532015,959.9998909707382" fill="rgb(53,98,96)" stroke="#356260" stroke-width="2" stroke-linecap="round" stroke-linejoin="round" stroke-dasharray="3 3"/><rect x="0" y="0" width="190.0000623306403" height="959.9998909707382" fill="rgba(255,255,255,0.01)" stroke="rgba(255,255,255,0.01)" stroke-width="2" stroke-linecap="round" stroke-linejoin="round" stroke-dasharray="3 3"/></g><g transform="translate(1326.6050311653203, 2654.9999999999995) rotate(0, 28.395, 0)" width="56.79" height="20"><text text-decoration="none" x="0.004374999999999574" fill="rgb(253, 246, 246)" font-size="11pt" font-family="lt_regular"  y="16">Network</text><text text-decoration="none" x="56.785624999999996" fill="#4b4b4b" font-size="10pt" font-family="noto_regular"  y="16"></text></g></g><g id="mfl6tRzDJVw"><g transform="translate(1609.9999999999998 2649.9999999999995)"><rect x="0" y="0" width="162.0561536123243" height="30" fill="rgb(82,179,208)" stroke="#34728D" stroke-width="2" stroke-linecap="round" stroke-linejoin="round" stroke-dasharray="0 0"/><path d="M 81.02807680616215,30 L 81.02807680616215,956.4973382974516" fill="rgb(82,179,208)" stroke="#34728D" stroke-width="2" stroke-linecap="round" stroke-linejoin="round" stroke-dasharray="3 3"/><rect x="0" y="0" width="162.0561536123243" height="956.4973382974516" fill="rgba(255,255,255,0.01)" stroke="rgba(255,255,255,0.01)" stroke-width="2" stroke-linecap="round" stroke-linejoin="round" stroke-dasharray="3 3"/></g><g transform="translate(1658.4080768061622, 2654.9999999999995) rotate(0, 32.62, 0)" width="65.24" height="20"><text text-decoration="none" x="0.002812499999997442" fill="#FFFFFF" font-size="11pt" font-family="lt_regular"  y="16">Converter</text><text text-decoration="none" x="65.2371875" fill="#4b4b4b" font-size="10pt" font-family="noto_regular"  y="16"></text></g></g><g id="8SEjt2cBGUW"><g transform="translate(1840.0000000000007 2649.9999999999995)"><rect x="0" y="0" width="162.0561536123243" height="30" fill="rgb(65,56,194)" stroke="#36309D" stroke-width="2" stroke-linecap="round" stroke-linejoin="round" stroke-dasharray="0 0"/><path d="M 81.02807680616215,30 L 81.02807680616215,960.010514676052" fill="rgb(65,56,194)" stroke="#36309D" stroke-width="2" stroke-linecap="round" stroke-linejoin="round" stroke-dasharray="3 3"/><rect x="0" y="0" width="162.0561536123243" height="960.010514676052" fill="rgba(255,255,255,0.01)" stroke="rgba(255,255,255,0.01)" stroke-width="2" stroke-linecap="round" stroke-linejoin="round" stroke-dasharray="3 3"/></g><g transform="translate(1900.198076806163, 2654.9999999999995) rotate(0, 20.83, 0)" width="41.66" height="20"><text text-decoration="none" x="0.0018749999999982947" fill="#FFFFFF" font-size="11pt" font-family="lt_regular"  y="16">Server</text><text text-decoration="none" x="41.658125" fill="#4b4b4b" font-size="10pt" font-family="noto_regular"  y="16"></text></g></g><g id="TPp8wbdqLFq"><g transform="translate(1910.0000000000007 3319.9999999999995)"><rect x="0" y="0" width="20" height="99.54281326174153" fill="rgb(65,56,194)" stroke="#36309D" stroke-width="2" stroke-linecap="round" stroke-linejoin="round" stroke-dasharray="0 0"/></g></g><g id="EA2VRR106k0"><g transform="translate(789.9999999999999 2650)"><rect x="0" y="0" width="185.2070326997992" height="30" fill="rgb(94,194,105)" stroke="#3C7E44" stroke-width="2" stroke-linecap="round" stroke-linejoin="round" stroke-dasharray="0 0"/><path d="M 92.6035163498996,30 L 92.6035163498996,960.0000340223687" fill="rgb(94,194,105)" stroke="#3C7E44" stroke-width="2" stroke-linecap="round" stroke-linejoin="round" stroke-dasharray="3 3"/><rect x="0" y="0" width="185.2070326997992" height="960.0000340223687" fill="rgba(255,255,255,0.01)" stroke="rgba(255,255,255,0.01)" stroke-width="2" stroke-linecap="round" stroke-linejoin="round" stroke-dasharray="3 3"/></g><g transform="translate(812.2785163498995, 2655) rotate(0, 70.325, 0)" width="140.65" height="20"><text text-decoration="none" x="0.004687500000002842" fill="#FFFFFF" font-size="11pt" font-family="lt_regular"  y="16">PathFindingAlgorithm</text><text text-decoration="none" x="140.6453125" fill="#4b4b4b" font-size="10pt" font-family="noto_regular"  y="16"></text></g></g><g id="VZHz1MUQTFI"><g transform="translate(870.0000000000001 2980)"><rect x="0" y="0" width="20" height="80.00001675527541" fill="rgb(94,194,105)" stroke="#3C7E44" stroke-width="2" stroke-linecap="round" stroke-linejoin="round" stroke-dasharray="0 0"/></g></g><g id="IAOsJYQjWGT"><g transform="translate(999.9999999999998 2650)"><rect x="0" y="0" width="185.2070326997992" height="30" fill="rgb(94,194,105)" stroke="#3C7E44" stroke-width="2" stroke-linecap="round" stroke-linejoin="round" stroke-dasharray="0 0"/><path d="M 92.6035163498996,30 L 92.6035163498996,953.1637190831474" fill="rgb(94,194,105)" stroke="#3C7E44" stroke-width="2" stroke-linecap="round" stroke-linejoin="round" stroke-dasharray="3 3"/><rect x="0" y="0" width="185.2070326997992" height="953.1637190831474" fill="rgba(255,255,255,0.01)" stroke="rgba(255,255,255,0.01)" stroke-width="2" stroke-linecap="round" stroke-linejoin="round" stroke-dasharray="3 3"/></g><g transform="translate(1045.7035163498992, 2655) rotate(0, 46.9, 0)" width="93.8" height="20"><text text-decoration="none" x="0.001562499999998579" fill="#FFFFFF" font-size="11pt" font-family="lt_regular"  y="16">FullMapModel</text><text text-decoration="none" x="93.7984375" fill="#4b4b4b" font-size="10pt" font-family="noto_regular"  y="16"></text></g></g><g id="1ZdXwgIOxoL"><g transform="translate(1079.9999999999998 2830.000000000001)"><rect x="0" y="0" width="20" height="100.00000001330902" fill="rgb(94,194,105)" stroke="#3C7E44" stroke-width="2" stroke-linecap="round" stroke-linejoin="round" stroke-dasharray="0 0"/></g></g><g id="1SHEIwn5BjU"><g transform="translate(1350 3050)"><rect x="0" y="0" width="20" height="430.0000000166924" fill="rgb(132,175,181)" stroke="#84afb5" stroke-width="2" stroke-linecap="round" stroke-linejoin="round" stroke-dasharray="0 0"/></g></g><g id="uRDwhCqrBsW"><g transform="translate(1680.0000000000007 3090)"><rect x="0" y="0" width="20" height="90.00000972649637" fill="rgb(82,179,208)" stroke="#34728D" stroke-width="2" stroke-linecap="round" stroke-linejoin="round" stroke-dasharray="0 0"/></g></g><g id="Mr1WDliPlQe"><mask id="a85bc" x="1356" y="3086" width="338" height="28" maskUnits="userSpaceOnUse"><rect x="1356" y="3086" width="338" height="28" fill="white" /><rect x="1439.1" y="3087" width="171.8" height="26" fill="black" />undefined</mask><g mask="url(#a85bc)"><path d="M 1370,3100 L 1680,3100" fill="none" stroke="#9A9A9A" stroke-width="2" stroke-linecap="round" stroke-linejoin="round" stroke-dasharray="0 0"/><path d="M 1680,3100 L 1671.304347826087,3094.25 L 1671.304347826087,3105.75 Z" fill="rgb(154,154,154)" stroke="#9A9A9A" stroke-width="2" stroke-linecap="round" stroke-linejoin="round"/></g><g transform="translate(1442.1, 3090)" width="165.8" height="20"><text text-decoration="none" x="0.0015625000000056843" fill="rgb(84, 84, 84)" font-size="11pt" font-family="lt_regular"  y="16">3.1:&#160;</text><text text-decoration="none" x="27.892187500000006" fill="#4b4b4b" font-size="10pt" font-family="noto_regular"  y="16">convMove(EDirection)</text><text text-decoration="none" x="165.7984375" fill="#4b4b4b" font-size="10pt" font-family="noto_regular"  y="16"></text></g>undefined</g><g id="bzCD5IlU3YO"><mask id="71053" x="1356" y="3126" width="338" height="28" maskUnits="userSpaceOnUse"><rect x="1356" y="3126" width="338" height="28" fill="white" /><rect x="1485.21" y="3127" width="79.58" height="26" fill="black" />undefinedundefined</mask><g mask="url(#71053)"><path d="M 1680,3140 L 1370,3140" fill="none" stroke="#9A9A9A" stroke-width="2" stroke-linecap="round" stroke-linejoin="round" stroke-dasharray="3 3"/><path d="M 1370,3140 L 1376.9565217391305,3146.497175141243 M 1370,3140 L 1376.9565217391305,3133.502824858757 Z" fill="rgb(255,255,255)" stroke="#9A9A9A" stroke-width="2" stroke-linecap="round" stroke-linejoin="round"/></g><g transform="translate(1488.21, 3130)" width="73.58" height="20"><text text-decoration="none" x="0.0009374999999991473" fill="rgb(84, 84, 84)" font-size="11pt" font-family="lt_regular"  y="16">3.2:&#160;</text><text text-decoration="none" x="27.8915625" fill="rgb(84, 84, 84)" font-size="11pt" font-family="lt_regular"  y="16">EMove</text><text text-decoration="none" x="73.57906249999999" fill="#4b4b4b" font-size="10pt" font-family="noto_regular"  y="16"></text></g>undefinedundefined</g><g id="KHEZZbhNGvn"><g transform="translate(1910.0000000000007 3199.999999999999)"><rect x="0" y="0" width="20" height="99.54281326174153" fill="rgb(65,56,194)" stroke="#36309D" stroke-width="2" stroke-linecap="round" stroke-linejoin="round" stroke-dasharray="0 0"/></g></g><g id="SD82w8Wly9q"><mask id="ba417" x="1356" y="3186" width="568" height="58" maskUnits="userSpaceOnUse"><rect x="1356" y="3186" width="568" height="58" fill="white" /><rect x="1558.015" y="3201.999999999999" width="163.97" height="26" fill="black" /></mask><g mask="url(#ba417)"><path d="M 1370,3200 L 1630.0000000000005,3200 Q 1640.0000000000005,3200 1640.0000000000002,3210 L 1640,3215 L 1640.0000000000002,3219.999999999999 Q 1640.0000000000005,3229.999999999999 1650.0000000000005,3229.999999999999 L 1910,3230" fill="none" stroke="#9A9A9A" stroke-width="2" stroke-linecap="round" stroke-linejoin="round" stroke-dasharray="0 0"/><path d="M 1910,3230 L 1901.304347826087,3224.25 L 1901.304347826087,3235.75 Z" fill="rgb(154,154,154)" stroke="#9A9A9A" stroke-width="2" stroke-linecap="round" stroke-linejoin="round"/></g><g transform="translate(1561.015, 3204.999999999999)" width="157.97" height="20"><text text-decoration="none" x="0.0006249999999994316" fill="rgb(84, 84, 84)" font-size="11pt" font-family="lt_regular"  y="16">3.3:&#160;</text><text text-decoration="none" x="27.89125" fill="rgb(84, 84, 84)" font-size="11pt" font-family="lt_regular"  y="16">updatePlayerState()&#160;</text><text text-decoration="none" x="157.969375" fill="#4b4b4b" font-size="10pt" font-family="noto_regular"  y="16"></text></g></g><g id="Cq2mHMWFxrB"><mask id="69f3f" x="1356" y="3226" width="568" height="58" maskUnits="userSpaceOnUse"><rect x="1356" y="3226" width="568" height="58" fill="white" /><rect x="1562.225" y="3241.999999999999" width="155.55" height="26" fill="black" /></mask><g mask="url(#69f3f)"><path d="M 1910,3270 L 1650.0000000000005,3269.999999999999 Q 1640.0000000000005,3269.999999999999 1640.0000000000002,3259.999999999999 L 1640,3255 L 1640.0000000000002,3250 Q 1640.0000000000005,3240 1630.0000000000005,3240 L 1370,3240" fill="none" stroke="#9A9A9A" stroke-width="2" stroke-linecap="round" stroke-linejoin="round" stroke-dasharray="3 3"/><path d="M 1370,3240 L 1376.9565217391305,3246.497175141243 M 1370,3240 L 1376.9565217391305,3233.502824858757 Z" fill="rgb(255,255,255)" stroke="#9A9A9A" stroke-width="2" stroke-linecap="round" stroke-linejoin="round"/></g><g transform="translate(1565.225, 3244.999999999999)" width="149.55" height="20"><text text-decoration="none" x="0.0015625000000056843" fill="rgb(84, 84, 84)" font-size="11pt" font-family="lt_regular"  y="16">3.4:&#160;&#160;</text><text text-decoration="none" x="31.642187500000006" fill="rgb(84, 84, 84)" font-size="11pt" font-family="lt_regular"  y="16">EPlayerState:&#160;</text><text text-decoration="none" x="121.1734375" fill="rgb(84, 84, 84)" font-size="11pt" font-family="lt_regular"  y="16">ACT</text><text text-decoration="none" x="149.5484375" fill="#4b4b4b" font-size="10pt" font-family="noto_regular"  y="16"></text></g></g><g id="XBwgSfj0LI3"><mask id="b8cd1" x="206" y="2766" width="288" height="28" maskUnits="userSpaceOnUse"><rect x="206" y="2766" width="288" height="28" fill="white" /><rect x="290.46500000000003" y="2767" width="119.07" height="26" fill="black" />undefined</mask><g mask="url(#b8cd1)"><path d="M 220,2780 L 270,2780 Q 280,2780 280,2780 L 480,2780" fill="none" stroke="#9A9A9A" stroke-width="2" stroke-linecap="round" stroke-linejoin="round" stroke-dasharray="0 0"/><path d="M 480,2780 L 471.30434782608694,2774.25 L 471.30434782608694,2785.75 Z" fill="rgb(154,154,154)" stroke="#9A9A9A" stroke-width="2" stroke-linecap="round" stroke-linejoin="round"/></g><g transform="translate(293.46500000000003, 2770)" width="113.07" height="20"><text text-decoration="none" x="0.0037499999999965894" fill="rgb(84, 84, 84)" font-size="11pt" font-family="lt_regular"  y="16">1:&#160;</text><text text-decoration="none" x="15.941249999999997" fill="rgb(84, 84, 84)" font-size="11pt" font-family="lt_regular"  y="16">getNextMove()</text><text text-decoration="none" x="113.06625" fill="#4b4b4b" font-size="10pt" font-family="noto_regular"  y="16"></text></g>undefined</g><g id="OrubHl6ekN3"><g transform="translate(129.99999999999994 2650)"><rect x="0" y="0" width="160.07282829446237" height="30" fill="rgb(233,162,59)" stroke="#A85923" stroke-width="2" stroke-linecap="round" stroke-linejoin="round" stroke-dasharray="0 0"/><path d="M 80.03641414723118,30 L 80.03641414723118,960.0000001647359" fill="rgb(233,162,59)" stroke="#A85923" stroke-width="2" stroke-linecap="round" stroke-linejoin="round" stroke-dasharray="3 3"/><rect x="0" y="0" width="160.07282829446237" height="960.0000001647359" fill="rgba(255,255,255,0.01)" stroke="rgba(255,255,255,0.01)" stroke-width="2" stroke-linecap="round" stroke-linejoin="round" stroke-dasharray="3 3"/></g><g transform="translate(161.1614141472311, 2655) rotate(0, 48.875, 0)" width="97.75" height="20"><text text-decoration="none" x="0" fill="#FFFFFF" font-size="11pt" font-family="lt_regular"  y="16">MainController</text><text text-decoration="none" x="97.75" fill="#4b4b4b" font-size="10pt" font-family="noto_regular"  y="16"></text></g></g><g id="KNVlUloxLXc"><g transform="translate(480 2710)"><rect x="0" y="0" width="20" height="739.9999999960795" fill="rgb(233,162,59)" stroke="#A85923" stroke-width="2" stroke-linecap="round" stroke-linejoin="round" stroke-dasharray="0 0"/></g><g transform="translate(485, 3070.99999999804) rotate(0, 5, 9)" width="10" height="18"><text text-decoration="none" x="5" fill="#4b4b4b" font-size="10pt" font-family="noto_regular"  y="14"></text><text text-decoration="none" x="5" fill="#4b4b4b" font-size="10pt" font-family="noto_regular"  y="32"></text></g></g><g id="Kv4HVZ01BdV"><g transform="translate(200.00000000000017 2710)"><rect x="0" y="0" width="20" height="860.0148481350707" fill="rgb(233,162,59)" stroke="#A85923" stroke-width="2" stroke-linecap="round" stroke-linejoin="round" stroke-dasharray="0 0"/></g><g transform="translate(205.0000000000002, 3131.0074240675353) rotate(0, 5, 9)" width="10" height="18"><text text-decoration="none" x="5" fill="#4b4b4b" font-size="10pt" font-family="noto_regular"  y="14"></text><text text-decoration="none" x="5" fill="#4b4b4b" font-size="10pt" font-family="noto_regular"  y="32"></text></g></g><g id="MM1ikh7GWvy"><mask id="fbdc9" x="206" y="2706" width="118" height="68" maskUnits="userSpaceOnUse"><rect x="206" y="2706" width="118" height="68" fill="white" /><rect x="266.075" y="2727" width="87.85" height="26" fill="black" /></mask><g mask="url(#fbdc9)"><path d="M 220,2720 L 300,2720 Q 310,2720 310,2730 L 310,2740 L 310,2750 Q 310,2760 300,2760 L 220,2760" fill="none" stroke="#9A9A9A" stroke-width="2" stroke-linecap="round" stroke-linejoin="round" stroke-dasharray="0 0"/><path d="M 220,2760 L 228.69565217391303,2765.75 L 228.69565217391303,2754.25 Z" fill="rgb(154,154,154)" stroke="#9A9A9A" stroke-width="2" stroke-linecap="round" stroke-linejoin="round"/></g><g transform="translate(269.075, 2730)" width="81.85" height="20"><text text-decoration="none" x="0.003124999999997158" fill="rgb(84, 84, 84)" font-size="11pt" font-family="lt_regular"  y="16">sendMoves()</text><text text-decoration="none" x="81.846875" fill="#4b4b4b" font-size="10pt" font-family="noto_regular"  y="16"></text></g></g><g id="Hs51ZCqlVy5"><mask id="c4375" x="486" y="2786" width="128" height="68" maskUnits="userSpaceOnUse"><rect x="486" y="2786" width="128" height="68" fill="white" /><rect x="529.95" y="2807" width="140.1" height="26" fill="black" />undefinedundefinedundefinedundefinedundefined</mask><g mask="url(#c4375)"><path d="M 500,2800 L 590,2800 Q 600,2800 600,2810 L 600,2820 L 600,2830 Q 600,2840 590,2840 L 500,2840" fill="none" stroke="#9A9A9A" stroke-width="2" stroke-linecap="round" stroke-linejoin="round" stroke-dasharray="0 0"/><path d="M 500,2840 L 508.69565217391306,2845.75 L 508.69565217391306,2834.25 Z" fill="rgb(154,154,154)" stroke="#9A9A9A" stroke-width="2" stroke-linecap="round" stroke-linejoin="round"/></g><g transform="translate(532.95, 2810)" width="134.1" height="20"><text text-decoration="none" x="0.003124999999997158" fill="rgb(84, 84, 84)" font-size="11pt" font-family="lt_regular"  y="16">1.1:&#160;</text><text text-decoration="none" x="27.893749999999997" fill="rgb(84, 84, 84)" font-size="11pt" font-family="lt_regular"  y="16">getNextCoords()</text><text text-decoration="none" x="134.096875" fill="#4b4b4b" font-size="10pt" font-family="noto_regular"  y="16"></text></g>undefinedundefinedundefinedundefinedundefined</g><g id="yBn062KuAkE"><mask id="ce337" x="486" y="2846" width="608" height="28" maskUnits="userSpaceOnUse"><rect x="486" y="2846" width="608" height="28" fill="white" /><rect x="727.5449999999998" y="2847.0000000000005" width="124.91" height="26" fill="black" />undefinedundefinedundefinedundefinedundefinedundefinedundefined</mask><g mask="url(#ce337)"><path d="M 500,2860 L 779.9999999999999,2860 Q 780,2860 790,2860 Q 799.999999999999,2860.000000000001 799.9999999999999,2860.000000000001 L 1080,2860" fill="none" stroke="#9A9A9A" stroke-width="2" stroke-linecap="round" stroke-linejoin="round" stroke-dasharray="0 0"/><path d="M 1080,2860 L 1071.304347826087,2854.25 L 1071.304347826087,2865.75 Z" fill="rgb(154,154,154)" stroke="#9A9A9A" stroke-width="2" stroke-linecap="round" stroke-linejoin="round"/></g><g transform="translate(730.5449999999998, 2850.0000000000005)" width="118.91" height="20"><text text-decoration="none" x="0.0018749999999982947" fill="rgb(84, 84, 84)" font-size="11pt" font-family="lt_regular"  y="16">1.2.1:&#160;</text><text text-decoration="none" x="39.845625" fill="rgb(84, 84, 84)" font-size="11pt" font-family="lt_regular"  y="16">getFortPos()</text><text text-decoration="none" x="118.908125" fill="#4b4b4b" font-size="10pt" font-family="noto_regular"  y="16"></text></g>undefinedundefinedundefinedundefinedundefinedundefinedundefined</g><g id="ioWkPfLfU5x"><mask id="7e602" x="486" y="2906" width="158" height="68" maskUnits="userSpaceOnUse"><rect x="486" y="2906" width="158" height="68" fill="white" /><rect x="528" y="2927" width="204" height="26" fill="black" />undefinedundefinedundefinedundefinedundefinedundefinedundefined</mask><g mask="url(#7e602)"><path d="M 500,2920 L 620,2920 Q 630,2920 630,2930 L 630,2940 L 630,2950 Q 630,2960 620,2960 L 500,2960" fill="none" stroke="#9A9A9A" stroke-width="2" stroke-linecap="round" stroke-linejoin="round" stroke-dasharray="0 0"/><path d="M 500,2960 L 508.69565217391306,2965.75 L 508.69565217391306,2954.25 Z" fill="rgb(154,154,154)" stroke="#9A9A9A" stroke-width="2" stroke-linecap="round" stroke-linejoin="round"/></g><g transform="translate(531, 2930)" width="198" height="20"><text text-decoration="none" x="0" fill="rgb(84, 84, 84)" font-size="11pt" font-family="lt_regular"  y="16">1.3:&#160;</text><text text-decoration="none" x="27.890625" fill="rgb(84, 84, 84)" font-size="11pt" font-family="lt_regular"  y="16">getNewPath(NodeCoords)</text><text text-decoration="none" x="198" fill="#4b4b4b" font-size="10pt" font-family="noto_regular"  y="16"></text></g>undefinedundefinedundefinedundefinedundefinedundefinedundefined</g><g id="AbCgnH6lirf"><mask id="e9a25" x="486" y="2886" width="608" height="28" maskUnits="userSpaceOnUse"><rect x="486" y="2886" width="608" height="28" fill="white" /><rect x="726.2099999999999" y="2887.0000000000005" width="127.58" height="26" fill="black" />undefinedundefined</mask><g mask="url(#e9a25)"><path d="M 1080,2900 L 799.9999999999999,2900.000000000001 Q 799.999999999999,2900.000000000001 790,2900 Q 780,2900 779.9999999999999,2900 L 500,2900" fill="none" stroke="#9A9A9A" stroke-width="2" stroke-linecap="round" stroke-linejoin="round" stroke-dasharray="3 3"/><path d="M 500,2900 L 506.95652173913044,2906.497175141243 M 500,2900 L 506.95652173913044,2893.502824858757 Z" fill="rgb(255,255,255)" stroke="#9A9A9A" stroke-width="2" stroke-linecap="round" stroke-linejoin="round"/></g><g transform="translate(729.2099999999999, 2890.0000000000005)" width="121.58" height="20"><text text-decoration="none" x="0.0009374999999991473" fill="rgb(84, 84, 84)" font-size="11pt" font-family="lt_regular"  y="16">1.2.2:&#160;</text><text text-decoration="none" x="39.8446875" fill="rgb(84, 84, 84)" font-size="11pt" font-family="lt_regular"  y="16">NodeCoords</text><text text-decoration="none" x="121.57906249999999" fill="#4b4b4b" font-size="10pt" font-family="noto_regular"  y="16"></text></g>undefinedundefined</g><g id="B6TUrNUosYa"><mask id="113e1" x="486" y="2986" width="398" height="38" maskUnits="userSpaceOnUse"><rect x="486" y="2986" width="398" height="38" fill="white" /><rect x="556.17" y="2992" width="257.65999999999997" height="26" fill="black" />undefinedundefinedundefinedundefinedundefinedundefinedundefined</mask><g mask="url(#113e1)"><path d="M 500,3000 L 675,3000 Q 680,3000 685,3005 Q 690,3010 695,3010 L 870,3010" fill="none" stroke="#9A9A9A" stroke-width="2" stroke-linecap="round" stroke-linejoin="round" stroke-dasharray="0 0"/><path d="M 870,3010 L 861.304347826087,3004.25 L 861.304347826087,3015.75 Z" fill="rgb(154,154,154)" stroke="#9A9A9A" stroke-width="2" stroke-linecap="round" stroke-linejoin="round"/></g><g transform="translate(559.17, 2995)" width="251.66" height="20"><text text-decoration="none" x="0.0018749999999982947" fill="rgb(84, 84, 84)" font-size="11pt" font-family="lt_regular"  y="16">1.4.1:&#160;</text><text text-decoration="none" x="39.845625" fill="rgb(84, 84, 84)" font-size="11pt" font-family="lt_regular"  y="16">generatePath(List&#x3C;Node&#x3E;,&#160;</text><text text-decoration="none" x="212.29874999999998" fill="rgb(84, 84, 84)" font-size="11pt" font-family="lt_regular"  y="16">Node)</text><text text-decoration="none" x="251.65812499999998" fill="#4b4b4b" font-size="10pt" font-family="noto_regular"  y="16"></text></g>undefinedundefinedundefinedundefinedundefinedundefinedundefined</g><g id="uRmU8PlPEsN"><mask id="34fdc" x="486" y="3006" width="398" height="38" maskUnits="userSpaceOnUse"><rect x="486" y="3006" width="398" height="38" fill="white" /><rect x="624.535" y="3012" width="120.93" height="26" fill="black" />undefinedundefined</mask><g mask="url(#34fdc)"><path d="M 870,3030 L 695,3030 Q 690,3030 685,3025 Q 680,3020 675,3020 L 500,3020" fill="none" stroke="#9A9A9A" stroke-width="2" stroke-linecap="round" stroke-linejoin="round" stroke-dasharray="3 3"/><path d="M 500,3020 L 506.95652173913044,3026.497175141243 M 500,3020 L 506.95652173913044,3013.502824858757 Z" fill="rgb(255,255,255)" stroke="#9A9A9A" stroke-width="2" stroke-linecap="round" stroke-linejoin="round"/></g><g transform="translate(627.535, 3015)" width="114.93" height="20"><text text-decoration="none" x="0.004062500000003411" fill="rgb(84, 84, 84)" font-size="11pt" font-family="lt_regular"  y="16">1.4.2:&#160;</text><text text-decoration="none" x="39.8478125" fill="rgb(84, 84, 84)" font-size="11pt" font-family="lt_regular"  y="16">List&#x3C;Node&#x3E;</text><text text-decoration="none" x="114.9259375" fill="#4b4b4b" font-size="10pt" font-family="noto_regular"  y="16"></text></g>undefinedundefined</g><g id="fXTb6VglDTQ"><mask id="87130" x="206" y="3026" width="288" height="28" maskUnits="userSpaceOnUse"><rect x="206" y="3026" width="288" height="28" fill="white" /><rect x="304.8" y="3027" width="90.4" height="26" fill="black" />undefinedundefined</mask><g mask="url(#87130)"><path d="M 480,3040 L 220,3040" fill="none" stroke="#9A9A9A" stroke-width="2" stroke-linecap="round" stroke-linejoin="round" stroke-dasharray="3 3"/><path d="M 220,3040 L 226.95652173913044,3046.497175141243 M 220,3040 L 226.95652173913044,3033.502824858757 Z" fill="rgb(255,255,255)" stroke="#9A9A9A" stroke-width="2" stroke-linecap="round" stroke-linejoin="round"/></g><g transform="translate(307.8, 3030)" width="84.4" height="20"><text text-decoration="none" x="0.004687500000002842" fill="rgb(84, 84, 84)" font-size="11pt" font-family="lt_regular"  y="16">2:&#160;</text><text text-decoration="none" x="15.942187500000003" fill="rgb(84, 84, 84)" font-size="11pt" font-family="lt_regular"  y="16">EDirection</text><text text-decoration="none" x="84.3953125" fill="#4b4b4b" font-size="10pt" font-family="noto_regular"  y="16"></text></g>undefinedundefined</g><g id="ypzOMk58kOg"><mask id="dace8" x="206" y="3066" width="1158" height="28" maskUnits="userSpaceOnUse"><rect x="206" y="3066" width="1158" height="28" fill="white" /><rect x="702.06" y="3067" width="165.88" height="26" fill="black" />undefined</mask><g mask="url(#dace8)"><path d="M 220,3080 L 1350,3080" fill="none" stroke="#9A9A9A" stroke-width="2" stroke-linecap="round" stroke-linejoin="round" stroke-dasharray="0 0"/><path d="M 1350,3080 L 1341.304347826087,3074.25 L 1341.304347826087,3085.75 Z" fill="rgb(154,154,154)" stroke="#9A9A9A" stroke-width="2" stroke-linecap="round" stroke-linejoin="round"/></g><g transform="translate(705.06, 3070)" width="159.88" height="20"><text text-decoration="none" x="0.0024999999999977263" fill="rgb(84, 84, 84)" font-size="11pt" font-family="lt_regular"  y="16">3:&#160;</text><text text-decoration="none" x="15.939999999999998" fill="rgb(84, 84, 84)" font-size="11pt" font-family="lt_regular"  y="16">sendMove(EDirection)</text><text text-decoration="none" x="159.8775" fill="#4b4b4b" font-size="10pt" font-family="noto_regular"  y="16"></text></g>undefined</g><g id="Betki0aY7Tu"><g transform="translate(70.00000153439828 2699.9997150595527)"><rect x="0" y="0" width="1980.0000023271618" height="820.0002812355535" fill="rgba(255,255,255,0)" stroke="#1a1a1a" stroke-width="2" stroke-linecap="round" stroke-linejoin="round" stroke-dasharray="0 0"/></g></g><g id="TiiKhdhaJsP"><g transform="translate(1219.9999999998597 3179.9999883015143)"><rect x="0" y="0" width="780.0000002312959" height="200.00001172903828" fill="rgba(255,255,255,0)" stroke="#1a1a1a" stroke-width="2" stroke-linecap="round" stroke-linejoin="round" stroke-dasharray="0 0"/></g></g><g id="dOtr4CgguIq"><g transform="translate(70.00000000000011 2720)"><path d="M 110.28832566065114,0 L 110.28832566065114,20 L 130.28832566065114,20 L 110.28832566065114,0 L 0,0 L 0,71.69999774765499 L 130.28832566065114,71.69999774765499 L 130.28832566065114,20" fill="white" stroke="#4b4b4b" stroke-width="2" stroke-linecap="round" stroke-linejoin="round" stroke-dasharray="0 0"/></g><g transform="translate(80.00000000000011, 2727) rotate(0, 0, 0)" width="83.44" height="36.01"><text text-decoration="none" x="0" fill="rgb(75, 75, 75)" font-weight="bold" font-size="10pt" font-family="lt_regular"  y="14">loop:&#160;</text><text text-decoration="none" x="0" fill="rgb(75, 75, 75)" font-weight="bold" font-size="10pt" font-family="lt_regular"  y="32">!isGameOver()</text><text text-decoration="none" x="83.4375" fill="#4b4b4b" font-size="10pt" font-family="noto_regular"  y="32"></text></g></g><g id="Eom7hJJlWUh"><g transform="translate(1220 3200.0000000000005)"><path d="M 79.99999999999989,0 L 79.99999999999989,20 L 99.99999999999989,20 L 79.99999999999989,0 L 0,0 L 0,80 L 99.99999999999989,80 L 99.99999999999989,20" fill="white" stroke="#4b4b4b" stroke-width="2" stroke-linecap="round" stroke-linejoin="round" stroke-dasharray="0 0"/></g><g transform="translate(1230, 3210.0000000000005) rotate(0, 0, 0)" width="79.69" height="36.01"><text text-decoration="none" x="0" fill="rgb(75, 75, 75)" font-weight="bold" font-size="10pt" font-family="lt_regular"  y="14">loop:&#160;</text><text text-decoration="none" x="0" fill="rgb(75, 75, 75)" font-weight="bold" font-size="10pt" font-family="lt_regular"  y="32">waitForTurn()</text><text text-decoration="none" x="79.6875" fill="#4b4b4b" font-size="10pt" font-family="noto_regular"  y="32"></text></g></g><g id="EocJSMmk0po"><mask id="fa408" x="1356" y="3286" width="568" height="58" maskUnits="userSpaceOnUse"><rect x="1356" y="3286" width="568" height="58" fill="white" /><rect x="1560.585" y="3301.999999999999" width="158.83" height="26" fill="black" /></mask><g mask="url(#fa408)"><path d="M 1370,3300 L 1630.0000000000005,3300 Q 1640.0000000000005,3300 1640.0000000000002,3310 L 1640,3315 L 1640.0000000000002,3319.9999999999995 Q 1640.0000000000005,3329.9999999999995 1650.0000000000005,3329.9999999999995 L 1910,3330" fill="none" stroke="#9A9A9A" stroke-width="2" stroke-linecap="round" stroke-linejoin="round" stroke-dasharray="0 0"/><path d="M 1910,3330 L 1901.304347826087,3324.25 L 1901.304347826087,3335.75 Z" fill="rgb(154,154,154)" stroke="#9A9A9A" stroke-width="2" stroke-linecap="round" stroke-linejoin="round"/></g><g transform="translate(1563.585, 3304.999999999999)" width="152.83" height="20"><text text-decoration="none" x="0.0009375000000062528" fill="rgb(84, 84, 84)" font-size="11pt" font-family="lt_regular"  y="16">3.5:&#160;</text><text text-decoration="none" x="27.891562500000006" fill="rgb(84, 84, 84)" font-size="11pt" font-family="lt_regular"  y="16">sendMove(EMove)&#160;</text><text text-decoration="none" x="152.82906250000002" fill="#4b4b4b" font-size="10pt" font-family="noto_regular"  y="16"></text></g></g><g id="3gjyRQSgc1s"><mask id="ea6ee" x="1356" y="3326" width="568" height="58" maskUnits="userSpaceOnUse"><rect x="1356" y="3326" width="568" height="58" fill="white" /><rect x="1548.34" y="3341.999999999999" width="183.32" height="26" fill="black" /></mask><g mask="url(#ea6ee)"><path d="M 1910,3370 L 1650.0000000000005,3369.9999999999995 Q 1640.0000000000005,3369.9999999999995 1640.0000000000002,3359.9999999999995 L 1640,3355 L 1640.0000000000002,3350 Q 1640.0000000000005,3340 1630.0000000000005,3340 L 1370,3340" fill="none" stroke="#9A9A9A" stroke-width="2" stroke-linecap="round" stroke-linejoin="round" stroke-dasharray="3 3"/><path d="M 1370,3340 L 1376.9565217391305,3346.497175141243 M 1370,3340 L 1376.9565217391305,3333.502824858757 Z" fill="rgb(255,255,255)" stroke="#9A9A9A" stroke-width="2" stroke-linecap="round" stroke-linejoin="round"/></g><g transform="translate(1551.34, 3344.999999999999)" width="177.32" height="20"><text text-decoration="none" x="0.0037499999999965894" fill="rgb(84, 84, 84)" font-size="11pt" font-family="lt_regular"  y="16">3.6:&#160;&#160;</text><text text-decoration="none" x="31.644374999999997" fill="rgb(0, 0, 0)" font-size="11pt" font-family="noto_regular"  y="16">ResponseEnvelope&#x3C;&#x3E;</text><text text-decoration="none" x="177.31625" fill="#4b4b4b" font-size="10pt" font-family="noto_regular"  y="16"></text></g></g><g id="PwvxpnEeKxx"><mask id="cf641" x="206" y="3346" width="1158" height="68" maskUnits="userSpaceOnUse"><rect x="206" y="3346" width="1158" height="68" fill="white" /><rect x="734.2" y="3367" width="101.6" height="26" fill="black" /></mask><g mask="url(#cf641)"><path d="M 1350,3400 L 795.0000000000001,3400 Q 785.0000000000001,3400 785,3390 L 785,3380 L 785,3370 Q 785.0000000000001,3360 775.0000000000001,3360 L 220,3360" fill="none" stroke="#9A9A9A" stroke-width="2" stroke-linecap="round" stroke-linejoin="round" stroke-dasharray="3 3"/><path d="M 220,3360 L 226.95652173913044,3366.497175141243 M 220,3360 L 226.95652173913044,3353.502824858757 Z" fill="rgb(255,255,255)" stroke="#9A9A9A" stroke-width="2" stroke-linecap="round" stroke-linejoin="round"/></g><g transform="translate(737.2, 3370)" width="95.6" height="20"><text text-decoration="none" x="0.003124999999997158" fill="rgb(84, 84, 84)" font-size="11pt" font-family="lt_regular"  y="16">4:&#160;</text><text text-decoration="none" x="15.940624999999997" fill="rgb(84, 84, 84)" font-size="11pt" font-family="lt_regular"  y="16">newPosition</text><text text-decoration="none" x="95.596875" fill="#4b4b4b" font-size="10pt" font-family="noto_regular"  y="16"></text></g></g><g id="W6LPFFLWiuQ"><mask id="d9998" x="206" y="3406" width="1158" height="28" maskUnits="userSpaceOnUse"><rect x="206" y="3406" width="1158" height="28" fill="white" /><rect x="736.59" y="3407" width="96.82" height="26" fill="black" />undefined</mask><g mask="url(#d9998)"><path d="M 220,3420 L 1350,3420" fill="none" stroke="#9A9A9A" stroke-width="2" stroke-linecap="round" stroke-linejoin="round" stroke-dasharray="0 0"/><path d="M 1350,3420 L 1341.304347826087,3414.25 L 1341.304347826087,3425.75 Z" fill="rgb(154,154,154)" stroke="#9A9A9A" stroke-width="2" stroke-linecap="round" stroke-linejoin="round"/></g><g transform="translate(739.59, 3410)" width="90.82" height="20"><text text-decoration="none" x="0.0037499999999965894" fill="rgb(84, 84, 84)" font-size="11pt" font-family="lt_regular"  y="16">5:&#160;</text><text text-decoration="none" x="15.941249999999997" fill="rgb(84, 84, 84)" font-size="11pt" font-family="lt_regular"  y="16">gameOver()</text><text text-decoration="none" x="90.81625" fill="#4b4b4b" font-size="10pt" font-family="noto_regular"  y="16"></text></g>undefined</g><g id="77POr3N6GcY"><mask id="96982" x="206" y="3446" width="1158" height="28" maskUnits="userSpaceOnUse"><rect x="206" y="3446" width="1158" height="28" fill="white" /><rect x="755.48" y="3447" width="59.04" height="26" fill="black" /></mask><g mask="url(#96982)"><path d="M 1350,3460 L 220,3460" fill="none" stroke="#9A9A9A" stroke-width="2" stroke-linecap="round" stroke-linejoin="round" stroke-dasharray="3 3"/><path d="M 220,3460 L 226.95652173913044,3466.497175141243 M 220,3460 L 226.95652173913044,3453.502824858757 Z" fill="rgb(255,255,255)" stroke="#9A9A9A" stroke-width="2" stroke-linecap="round" stroke-linejoin="round"/></g><g transform="translate(758.48, 3450)" width="53.04" height="20"><text text-decoration="none" x="0.004374999999999574" fill="rgb(84, 84, 84)" font-size="11pt" font-family="lt_regular"  y="16">6:&#160;</text><text text-decoration="none" x="15.941875" fill="rgb(84, 84, 84)" font-size="11pt" font-family="lt_regular"  y="16">TRUE</text><text text-decoration="none" x="53.035624999999996" fill="#4b4b4b" font-size="10pt" font-family="noto_regular"  y="16"></text></g></g></svg>