<svg xmlns="http://www.w3.org/2000/svg" xmlns:svg="http://www.w3.org/2000/svg" xmlns:xlink="http://www.w3.org/1999/xlink" version="1.0" height="590.0004631083223pt" width="1175.210308830676pt" viewBox="65.00000000000006 -53.000000000000114 1183.210308830676 596.0004631083223" ><defs><style type="text/css">
            @font-face {
                font-family: 'lt_regular';
                src: url('https://app.creately.com/d/assets/fonts/lato/lt-regular-webfont.woff2') format('woff2'),
                    url('https://app.creately.com/d/assets/fonts/lato/lt-regular-webfont.woff') format('woff');
                font-weight: normal;
                font-style: normal;
            }
            @font-face {
                font-family: 'courier_prime';
                src: url('https://app.creately.com/d/assets/fonts/embed/courier_prime-webfont.woff2') format('woff2'),
                    url('https://app.creately.com/d/assets/fonts/embed/courier_prime-webfont.woff') format('woff');
                font-weight: normal;
                font-style: normal;
            }
            @font-face {
                font-family: 'noto_regular';
                src: url('https://app.creately.com/d/assets/fonts/noto/noto-regular.woff') format('woff'),
                     url('https://app.creately.com/d/assets/fonts/noto/noto-regular.woff2') format('woff2');
                font-weight: normal;
                font-style: normal;
            }
        p {
            margin: 0;
        }
        </style></defs><defs>
        <style>
            span{ display: inline-block; }
            
        </style>
        
        </defs><g id="XyJ9yBlTDkT"><g transform="translate(429.38598859343637 -50.000000000000114)"><rect x="0" y="0" width="185.2070326997992" height="30" fill="rgb(233,162,59)" stroke="#A85923" stroke-width="2" stroke-linecap="round" stroke-linejoin="round" stroke-dasharray="0 0"/><path d="M 92.6035163498996,30 L 92.6035163498996,590.0004631083223" fill="rgb(233,162,59)" stroke="#A85923" stroke-width="2" stroke-linecap="round" stroke-linejoin="round" stroke-dasharray="3 3"/><rect x="0" y="0" width="185.2070326997992" height="590.0004631083223" fill="rgba(255,255,255,0.01)" stroke="rgba(255,255,255,0.01)" stroke-width="2" stroke-linecap="round" stroke-linejoin="round" stroke-dasharray="3 3"/></g><g transform="translate(473.114504943336, -45.000000000000114) rotate(0, 48.875, 0)" width="97.75" height="20"><text text-decoration="none" x="0" fill="#FFFFFF" font-size="11pt" font-family="lt_regular"  y="16">MainController</text><text text-decoration="none" x="97.75" fill="#4b4b4b" font-size="10pt" font-family="noto_regular"  y="16"></text></g></g><g id="nHBo68rcFeS"><mask id="1f8dc" x="166" y="6" width="358" height="28" maskUnits="userSpaceOnUse"><rect x="166" y="6" width="358" height="28" fill="white" /><rect x="220.03500000000045" y="6.999999999999911" width="249.93" height="26" fill="black" />undefined</mask><g mask="url(#1f8dc)"><path d="M 180,20 L 380,19.999999999999893 Q 380.0000000000001,19.999999999999893 390,20 Q 399.9999999999992,20.00000000000073 400,20.00000000000073 L 510,20" fill="none" stroke="#9A9A9A" stroke-width="2" stroke-linecap="round" stroke-linejoin="round" stroke-dasharray="0 0"/><path d="M 510,20 L 501.30434782608694,14.25 L 501.30434782608694,25.75 Z" fill="rgb(154,154,154)" stroke="#9A9A9A" stroke-width="2" stroke-linecap="round" stroke-linejoin="round"/></g><g transform="translate(223.03500000000045, 9.999999999999911)" width="243.93" height="20"><text text-decoration="none" x="0.004062500000003411" fill="rgb(84, 84, 84)" font-size="11pt" font-family="lt_regular"  y="16">1:&#160;</text><text text-decoration="none" x="15.941562500000003" fill="rgb(84, 84, 84)" font-size="11pt" font-family="lt_regular"  y="16">registerHalfMap(playerId,&#160;</text><text text-decoration="none" x="183.8478125" fill="rgb(84, 84, 84)" font-size="11pt" font-family="lt_regular"  y="16">HalfMap)</text><text text-decoration="none" x="243.9259375" fill="#4b4b4b" font-size="10pt" font-family="noto_regular"  y="16"></text></g>undefined</g><g id="weYbHpChucZ"><g transform="translate(770 -50)"><rect x="0" y="0" width="175.21030883067598" height="29" fill="rgb(174,45,93)" stroke="#90264D" stroke-width="2" stroke-linecap="round" stroke-linejoin="round" stroke-dasharray="0 0"/><path d="M 87.60515441533799,29 L 87.60515441533799,590.0000000394064" fill="rgb(174,45,93)" stroke="#90264D" stroke-width="2" stroke-linecap="round" stroke-linejoin="round" stroke-dasharray="3 3"/><rect x="0" y="0" width="175.21030883067598" height="590.0000000394064" fill="rgba(255,255,255,0.01)" stroke="rgba(255,255,255,0.01)" stroke-width="2" stroke-linecap="round" stroke-linejoin="round" stroke-dasharray="3 3"/></g><g transform="translate(796.065154415338, -45) rotate(0, 61.54, 0)" width="123.08" height="19"><text text-decoration="none" x="0.0009374999999991473" fill="rgb(255, 255, 255)" font-size="11pt" font-family="courier_prime"  y="13">GameValidation</text><text text-decoration="none" x="123.07906249999999" fill="#4b4b4b" font-size="10pt" font-family="noto_regular"  y="13"></text></g></g><g id="rdTUZOEhg9q"><g transform="translate(849.9999999999999 30)"><rect x="0" y="0" width="20" height="120.00000014663755" fill="rgb(174,45,93)" stroke="#90264D" stroke-width="2" stroke-linecap="round" stroke-linejoin="round" stroke-dasharray="0 0"/></g><g transform="translate(854.9999999999999, 81.00000007331877) rotate(0, 5, 9)" width="10" height="18"><text text-decoration="none" x="5" fill="#4b4b4b" font-size="10pt" font-family="noto_regular"  y="14"></text><text text-decoration="none" x="5" fill="#4b4b4b" font-size="10pt" font-family="noto_regular"  y="32"></text></g></g><g id="wzRDh1kqLFx"><g transform="translate(510 10.000000000000796)"><rect x="0" y="0" width="20" height="189.99999999968733" fill="rgb(233,162,59)" stroke="#A85923" stroke-width="2" stroke-linecap="round" stroke-linejoin="round" stroke-dasharray="0 0"/></g></g><g id="HOG8zKhMioY"><g transform="translate(70.00000000000006 -50)"><rect x="0" y="0" width="200.00000045606942" height="30" fill="rgb(53,98,96)" stroke="#356260" stroke-width="2" stroke-linecap="round" stroke-linejoin="round" stroke-dasharray="0 0"/><path d="M 100.00000022803471,30 L 100.00000022803471,589.9999980049622" fill="rgb(53,98,96)" stroke="#356260" stroke-width="2" stroke-linecap="round" stroke-linejoin="round" stroke-dasharray="3 3"/><rect x="0" y="0" width="200.00000045606942" height="589.9999980049622" fill="rgba(255,255,255,0.01)" stroke="rgba(255,255,255,0.01)" stroke-width="2" stroke-linecap="round" stroke-linejoin="round" stroke-dasharray="3 3"/></g><g transform="translate(141.60500022803475, -45) rotate(0, 28.395, 0)" width="56.79" height="20"><text text-decoration="none" x="0.004374999999999574" fill="rgb(253, 246, 246)" font-size="11pt" font-family="lt_regular"  y="16">Network</text><text text-decoration="none" x="56.785624999999996" fill="#4b4b4b" font-size="10pt" font-family="noto_regular"  y="16"></text></g></g><g id="tfBQCOuU9dy"><g transform="translate(159.99999999999994 9.999999999999886)"><rect x="0" y="0" width="20" height="180.0000011823479" fill="rgb(132,175,181)" stroke="#84afb5" stroke-width="2" stroke-linecap="round" stroke-linejoin="round" stroke-dasharray="0 0"/></g><g transform="translate(164.99999999999994, 91.00000059117383) rotate(0, 5, 9)" width="10" height="18"><text text-decoration="none" x="5" fill="#4b4b4b" font-size="10pt" font-family="noto_regular"  y="14"></text><text text-decoration="none" x="5" fill="#4b4b4b" font-size="10pt" font-family="noto_regular"  y="32"></text></g></g><g id="6I56DjOWx4n"><g transform="translate(1070 -50)"><rect x="0" y="0" width="175.21030883067598" height="29" fill="rgb(174,45,93)" stroke="#90264D" stroke-width="2" stroke-linecap="round" stroke-linejoin="round" stroke-dasharray="0 0"/><path d="M 87.60515441533799,29 L 87.60515441533799,590.000007719699" fill="rgb(174,45,93)" stroke="#90264D" stroke-width="2" stroke-linecap="round" stroke-linejoin="round" stroke-dasharray="3 3"/><rect x="0" y="0" width="175.21030883067598" height="590.000007719699" fill="rgba(255,255,255,0.01)" stroke="rgba(255,255,255,0.01)" stroke-width="2" stroke-linecap="round" stroke-linejoin="round" stroke-dasharray="3 3"/></g><g transform="translate(1082.8851544153379, -45) rotate(0, 74.72, 0)" width="149.44" height="19"><text text-decoration="none" x="0.0012499999999988631" fill="rgb(255, 255, 255)" font-size="11pt" font-family="courier_prime"  y="13">HalfMapValidation</text><text text-decoration="none" x="149.43875" fill="#4b4b4b" font-size="10pt" font-family="noto_regular"  y="13"></text></g></g><g id="jhMRSPEj9qR"><mask id="a462c" x="516" y="26" width="348" height="48" maskUnits="userSpaceOnUse"><rect x="516" y="26" width="348" height="48" fill="white" /><rect x="574.81" y="37.0000000000004" width="230.38" height="26" fill="black" />undefined</mask><g mask="url(#a462c)"><path d="M 530,40 L 680,40.000000000000746 Q 689.9999999999992,40.000000000000796 690,50 L 690,50 Q 690,60 700,60 L 850,60" fill="none" stroke="#9A9A9A" stroke-width="2" stroke-linecap="round" stroke-linejoin="round" stroke-dasharray="0 0"/><path d="M 850,60 L 841.304347826087,54.25 L 841.304347826087,65.75 Z" fill="rgb(154,154,154)" stroke="#9A9A9A" stroke-width="2" stroke-linecap="round" stroke-linejoin="round"/></g><g transform="translate(577.81, 40.0000000000004)" width="224.38" height="20"><text text-decoration="none" x="0.0024999999999977263" fill="rgb(84, 84, 84)" font-size="11pt" font-family="lt_regular"  y="16">1.2:&#160;</text><text text-decoration="none" x="27.893124999999998" fill="rgb(84, 84, 84)" font-size="11pt" font-family="lt_regular"  y="16">validateHm(playerId,&#160;</text><text text-decoration="none" x="164.299375" fill="rgb(84, 84, 84)" font-size="11pt" font-family="lt_regular"  y="16">HalfMap)</text><text text-decoration="none" x="224.3775" fill="#4b4b4b" font-size="10pt" font-family="noto_regular"  y="16"></text></g>undefined</g><g id="1q06ETfhpie"><mask id="a34ea" x="856" y="66" width="308" height="38" maskUnits="userSpaceOnUse"><rect x="856" y="66" width="308" height="38" fill="white" /><rect x="921.2" y="71.99999998952535" width="177.6" height="26" fill="black" />undefinedundefined</mask><g mask="url(#a34ea)"><path d="M 870,80 L 1000,80 Q 1005,80 1010,85 Q 1015.0000000209493,89.99999997979889 1020,89.99999998054707 L 1150,90" fill="none" stroke="#9A9A9A" stroke-width="2" stroke-linecap="round" stroke-linejoin="round" stroke-dasharray="0 0"/><path d="M 1150,90 L 1141.304347826087,84.25 L 1141.304347826087,95.75 Z" fill="rgb(154,154,154)" stroke="#9A9A9A" stroke-width="2" stroke-linecap="round" stroke-linejoin="round"/></g><g transform="translate(924.2, 74.99999998952535)" width="171.6" height="20"><text text-decoration="none" x="0.003124999999997158" fill="rgb(84, 84, 84)" font-size="11pt" font-family="lt_regular"  y="16">1.2:&#160;</text><text text-decoration="none" x="27.893749999999997" fill="rgb(84, 84, 84)" font-size="11pt" font-family="lt_regular"  y="16">halfMapExist(playerId)</text><text text-decoration="none" x="171.596875" fill="#4b4b4b" font-size="10pt" font-family="noto_regular"  y="16"></text></g>undefinedundefined</g><g id="VK9ddE9Uf0Z"><g transform="translate(1150 39.9999999790507)"><rect x="0" y="0" width="20" height="90.00296596337216" fill="rgb(174,45,93)" stroke="#90264D" stroke-width="2" stroke-linecap="round" stroke-linejoin="round" stroke-dasharray="0 0"/></g></g><g id="ZEaG0K1xMgc"><mask id="f1be2" x="856" y="86" width="308" height="38" maskUnits="userSpaceOnUse"><rect x="856" y="86" width="308" height="38" fill="white" /><rect x="977.28" y="91.99999998952535" width="65.44" height="26" fill="black" /></mask><g mask="url(#f1be2)"><path d="M 1150,110 L 1020,109.99999998054707 Q 1015.0000000209493,109.99999997979889 1010,105 Q 1005,100 1000,100 L 870,100" fill="none" stroke="#9A9A9A" stroke-width="2" stroke-linecap="round" stroke-linejoin="round" stroke-dasharray="3 3"/><path d="M 870,100 L 876.9565217391304,106.49717514124293 M 870,100 L 876.9565217391304,93.50282485875707 Z" fill="rgb(255,255,255)" stroke="#9A9A9A" stroke-width="2" stroke-linecap="round" stroke-linejoin="round"/></g><g transform="translate(980.28, 94.99999998952535)" width="59.44" height="20"><text text-decoration="none" x="0.0012499999999988631" fill="rgb(84, 84, 84)" font-size="11pt" font-family="lt_regular"  y="16">1.3:&#160;</text><text text-decoration="none" x="27.891875" fill="rgb(0, 0, 0)" font-size="11pt" font-family="noto_regular"  y="16">True</text><text text-decoration="none" x="59.43875" fill="#4b4b4b" font-size="10pt" font-family="noto_regular"  y="16"></text></g></g><g id="Q4fNiQnO2Fd"><mask id="fe179" x="516" y="86" width="348" height="48" maskUnits="userSpaceOnUse"><rect x="516" y="86" width="348" height="48" fill="white" /><rect x="616.39" y="97.0000000000004" width="147.22" height="26" fill="black" /></mask><g mask="url(#fe179)"><path d="M 850,120 L 700,120 Q 690,120 690,110 L 690,110 Q 689.9999999999992,100.0000000000008 680,100.00000000000074 L 530,100" fill="none" stroke="#9A9A9A" stroke-width="2" stroke-linecap="round" stroke-linejoin="round" stroke-dasharray="3 3"/><path d="M 530,100 L 536.9565217391304,106.49717514124293 M 530,100 L 536.9565217391304,93.50282485875707 Z" fill="rgb(255,255,255)" stroke="#9A9A9A" stroke-width="2" stroke-linecap="round" stroke-linejoin="round"/></g><g transform="translate(619.39, 100.0000000000004)" width="141.22" height="20"><text text-decoration="none" x="0.0006249999999994316" fill="rgb(84, 84, 84)" font-size="11pt" font-family="lt_regular"  y="16">1.4:&#160;</text><text text-decoration="none" x="27.89125" fill="rgb(0, 0, 0)" font-size="11pt" font-family="noto_regular"  y="16">Validation&#160;</text><text text-decoration="none" x="100.531875" fill="rgb(0, 0, 0)" font-size="11pt" font-family="noto_regular"  y="16">Failed</text><text text-decoration="none" x="141.219375" fill="#4b4b4b" font-size="10pt" font-family="noto_regular"  y="16"></text></g></g><g id="cnPZApWrTn3"><mask id="80981" x="166" y="146" width="358" height="48" maskUnits="userSpaceOnUse"><rect x="166" y="146" width="358" height="48" fill="white" /><rect x="243.6" y="157.00000000000034" width="202.8" height="26" fill="black" /></mask><g mask="url(#80981)"><path d="M 510,180 L 355,180.00000000000074 Q 345,180.0000000000008 345,170.0000000000008 L 345,170 L 345,169.9999999999999 Q 345,159.9999999999999 335,159.9999999999999 L 180,160" fill="none" stroke="#9A9A9A" stroke-width="2" stroke-linecap="round" stroke-linejoin="round" stroke-dasharray="3 3"/><path d="M 180,160 L 186.95652173913044,166.49717514124293 M 180,160 L 186.95652173913044,153.50282485875707 Z" fill="rgb(255,255,255)" stroke="#9A9A9A" stroke-width="2" stroke-linecap="round" stroke-linejoin="round"/></g><g transform="translate(246.6, 160.00000000000034)" width="196.8" height="20"><text text-decoration="none" x="0.0015625000000056843" fill="rgb(84, 84, 84)" font-size="11pt" font-family="lt_regular"  y="16">2:&#160;</text><text text-decoration="none" x="15.939062500000006" fill="rgb(0, 0, 0)" font-size="11pt" font-family="noto_regular"  y="16">ResponseEnvelope&#x3C;Error&#x3E;</text><text text-decoration="none" x="196.7984375" fill="#4b4b4b" font-size="10pt" font-family="noto_regular"  y="16"></text></g></g><g id="o8eqNNe0if2"><mask id="89608" x="516" y="106" width="128" height="68" maskUnits="userSpaceOnUse"><rect x="516" y="106" width="128" height="68" fill="white" /><rect x="563.84" y="127" width="132.32" height="26" fill="black" />undefined</mask><g mask="url(#89608)"><path d="M 530,120 L 619.9999999999999,120 Q 629.9999999999999,120 630,130 L 630,140 L 630,150 Q 629.9999999999999,160 619.9999999999999,160 L 530,160" fill="none" stroke="#9A9A9A" stroke-width="2" stroke-linecap="round" stroke-linejoin="round" stroke-dasharray="0 0"/><path d="M 530,160 L 538.695652173913,165.75 L 538.695652173913,154.25 Z" fill="rgb(154,154,154)" stroke="#9A9A9A" stroke-width="2" stroke-linecap="round" stroke-linejoin="round"/></g><g transform="translate(566.84, 130)" width="126.32" height="20"><text text-decoration="none" x="0.0037499999999965894" fill="rgb(84, 84, 84)" font-size="11pt" font-family="lt_regular"  y="16">1.5:&#160;</text><text text-decoration="none" x="27.894374999999997" fill="rgb(84, 84, 84)" font-size="11pt" font-family="lt_regular"  y="16">setGameState()</text><text text-decoration="none" x="126.31625" fill="#4b4b4b" font-size="10pt" font-family="noto_regular"  y="16"></text></g>undefined</g></svg>